<?xml version="1.0" standalone="no"?>
<!DOCTYPE svg PUBLIC "-//W3C//DTD SVG 20010904//EN"
 "http://www.w3.org/TR/2001/REC-SVG-20010904/DTD/svg10.dtd">
<svg version="1.0" xmlns="http://www.w3.org/2000/svg"
 width="250.000000pt" height="251.000000pt" viewBox="0 0 250.000000 251.000000"
 preserveAspectRatio="xMidYMid meet">

<g transform="translate(0.000000,251.000000) scale(0.100000,-0.100000)"
fill="#000000" stroke="none">
<path d="M622 2503 c346 -2 910 -2 1255 0 346 1 63 2 -627 2 -690 0 -973 -1
-628 -2z"/>
<path d="M2234 2453 c6 -18 4 -21 -15 -16 -18 5 -21 3 -16 -11 4 -10 7 -19 7
-21 0 -2 14 -1 31 2 18 2 40 -2 54 -11 39 -26 41 -18 4 14 -19 16 -42 37 -53
47 -18 17 -18 17 -12 -4z"/>
<path d="M246 2432 c-4 -7 -11 -10 -16 -7 -5 3 -14 -4 -20 -15 -9 -16 -8 -20
6 -20 9 0 23 8 30 18 10 12 13 13 14 3 0 -11 5 -9 21 5 l22 19 -14 -25 c-7
-14 -12 -32 -11 -42 2 -9 -2 -19 -8 -23 -20 -12 -10 -25 15 -19 15 4 25 2 25
-5 0 -6 -16 -11 -35 -11 -26 0 -33 3 -29 15 4 8 1 15 -6 15 -9 0 -8 5 3 18 15
16 13 17 -22 17 -21 0 -43 -5 -48 -10 -13 -14 3 -59 17 -50 15 9 12 -4 -5 -21
-9 -9 -15 -11 -15 -4 0 6 -5 8 -10 5 -6 -4 -8 -10 -5 -15 3 -4 -1 -13 -9 -19
-16 -13 -9 -58 10 -65 8 -3 14 -1 14 3 0 5 -4 11 -10 13 -5 2 -7 13 -4 25 5
18 10 20 28 13 13 -4 29 -4 39 1 13 8 17 6 17 -9 0 -14 -7 -19 -22 -18 -25 1
-28 -3 -28 -35 0 -17 3 -19 14 -10 11 9 15 9 19 -1 3 -10 9 -9 24 4 15 14 22
15 33 5 10 -10 11 -9 5 3 -8 13 -7 13 8 1 19 -15 23 -35 5 -29 -6 2 -23 -6
-36 -19 l-26 -24 72 -72 c40 -40 72 -78 72 -84 0 -6 6 -14 13 -17 6 -3 3 -4
-8 -1 -15 3 -29 -8 -57 -49 -21 -30 -38 -57 -38 -60 0 -3 14 -6 30 -6 l31 0
-18 -25 c-10 -13 -22 -25 -27 -25 -5 0 -3 7 4 15 10 12 9 16 -4 21 -11 4 -22
-1 -31 -12 -17 -22 -19 -38 -5 -29 21 13 9 -10 -15 -30 -34 -27 -79 -147 -62
-165 9 -10 9 -11 0 -6 -15 8 -37 -64 -53 -176 -36 -244 34 -536 178 -751 29
-43 52 -79 52 -80 0 -2 -20 -26 -45 -53 -25 -27 -45 -54 -45 -61 0 -7 -7 -10
-17 -6 -13 5 -15 2 -10 -11 4 -10 3 -15 -3 -11 -6 3 -10 2 -10 -4 0 -5 9 -13
20 -16 11 -3 20 -11 20 -16 0 -5 7 -9 15 -9 20 0 19 -14 -2 -31 -9 -8 -14 -9
-11 -4 6 9 -58 13 -87 5 -5 -1 -14 -2 -18 -1 -35 6 -57 -50 -28 -69 8 -4 11
-12 7 -18 -3 -6 -2 -13 3 -16 5 -4 12 2 14 11 4 17 5 17 6 1 0 -10 6 -18 13
-18 6 0 4 -6 -6 -13 -26 -19 -17 -52 15 -53 15 -1 35 -4 45 -8 14 -4 12 0 -7
17 l-26 24 28 0 c28 0 46 -24 41 -53 -1 -6 4 -17 12 -23 11 -9 26 2 77 54 35
36 63 70 61 76 -1 6 1 8 5 6 5 -3 37 21 72 53 62 56 64 57 92 43 16 -8 31 -18
34 -24 4 -5 15 -9 26 -9 11 0 22 -7 26 -15 6 -17 62 -50 70 -41 8 8 -7 26 -23
26 -8 0 -15 5 -15 10 -2 14 -5 22 -13 42 -4 10 -6 23 -4 29 4 12 66 -71 71
-94 8 -40 108 -81 277 -113 136 -26 389 -12 475 26 11 5 37 11 58 15 24 4 52
19 74 40 35 33 73 51 73 34 0 -5 -11 -11 -25 -15 -14 -3 -25 -10 -25 -15 0 -4
15 -2 34 6 49 21 108 57 102 63 -3 3 -12 -1 -21 -8 -9 -7 -18 -10 -22 -7 -3 4
10 14 30 22 21 8 37 21 37 28 0 8 4 7 10 -3 9 -13 13 -11 31 9 l20 24 56 -54
c31 -30 66 -65 78 -79 19 -20 25 -22 38 -12 12 10 16 10 20 0 3 -7 5 -4 5 7
-2 40 2 55 16 55 20 0 25 -21 13 -45 -6 -11 -11 -32 -12 -47 -2 -26 0 -27 37
-24 31 3 38 1 38 -14 0 -10 -7 -21 -16 -24 -22 -9 -24 -8 -24 9 0 8 -4 15 -10
15 -17 0 -11 -18 12 -34 20 -14 24 -14 43 3 11 10 26 17 33 15 7 -1 8 0 2 3
-5 2 -10 9 -10 14 0 6 5 7 10 4 6 -3 10 -1 10 5 0 7 6 6 15 -3 27 -27 49 -14
56 31 5 40 -3 57 -14 30 -4 -10 -8 -9 -16 2 -14 20 23 39 48 23 12 -8 22 -7
34 2 25 18 21 28 -5 14 -21 -11 -22 -11 -9 5 13 15 1 30 -110 142 -68 68 -125
129 -127 134 -2 5 14 35 36 67 60 89 86 143 73 156 -14 14 -14 27 0 27 5 0 7
-4 4 -10 -3 -5 -2 -10 4 -10 6 0 15 10 22 22 10 18 9 20 -5 15 -14 -6 -14 -4
1 21 9 15 22 34 28 42 35 46 65 214 65 360 0 131 -8 183 -26 176 -11 -4 -11
-2 -2 14 10 15 8 34 -6 94 -16 63 -26 82 -68 126 -53 56 -60 75 -13 35 15 -14
30 -23 32 -21 6 6 -26 68 -48 91 -10 12 -25 39 -32 60 -8 23 -24 45 -38 52
-30 15 -37 8 -16 -15 19 -21 22 -69 6 -92 -8 -11 -9 -7 -6 20 4 34 -9 80 -24
80 -4 0 -9 7 -13 15 -3 8 -2 14 2 14 4 -1 16 -1 27 0 17 1 18 3 5 14 -9 7 -15
20 -15 29 0 9 58 76 129 148 109 110 127 132 116 145 -7 8 -22 15 -34 15 -32
0 -47 13 -35 30 8 11 12 12 16 3 11 -29 19 -10 13 32 -6 41 -20 74 -20 48 0
-6 -8 -10 -17 -9 -10 0 -17 -5 -15 -11 1 -7 -2 -13 -8 -13 -5 0 -10 5 -10 11
0 5 -4 8 -9 5 -5 -3 -16 5 -25 19 -9 14 -24 25 -34 25 -20 0 -42 -18 -42 -35
0 -5 7 -2 14 8 16 21 46 13 46 -13 0 -15 -6 -17 -40 -13 l-40 6 4 -33 c2 -18
9 -36 16 -40 9 -6 7 -11 -6 -19 -22 -12 -9 -13 21 -2 15 6 22 2 32 -17 18 -33
16 -41 -3 -14 -18 26 -30 28 -50 8 -25 -26 -16 -43 29 -54 l42 -10 -44 2 c-48
4 -62 18 -55 56 7 30 -26 66 -51 56 -9 -3 -14 -10 -11 -14 5 -9 -35 -48 -44
-43 -2 1 -6 -2 -8 -8 -2 -6 11 -16 28 -23 27 -9 30 -12 16 -20 -12 -7 -22 -3
-36 14 l-19 23 -34 -33 -34 -33 -59 39 c-77 51 -100 63 -108 55 -3 -3 -6 -1
-6 5 0 7 -5 12 -11 12 -5 0 -7 -4 -4 -10 3 -5 2 -10 -3 -10 -5 0 -12 8 -14 18
-6 21 -146 71 -259 92 -63 12 -67 12 -88 -9 -18 -18 -24 -19 -41 -9 -11 7 -20
17 -20 22 0 4 6 3 14 -3 14 -12 46 -5 46 10 0 14 -68 11 -73 -3 -4 -10 -6 -10
-6 0 -1 8 -21 12 -68 12 -103 -1 -309 -41 -299 -59 3 -4 -7 -6 -22 -3 -26 5
-26 5 -10 -19 9 -13 20 -23 25 -22 4 0 14 -5 21 -13 12 -13 7 -14 -35 -8 -26
4 -58 8 -70 8 -19 1 -20 3 -9 14 10 11 19 11 34 3 25 -14 32 -14 32 -1 0 21
-50 22 -85 1 -20 -12 -42 -21 -49 -21 -7 0 -26 -12 -42 -27 -16 -15 -33 -26
-37 -25 -5 1 -24 -7 -43 -19 l-35 -21 -26 23 c-14 13 -43 41 -64 63 -23 24
-42 35 -50 31 -8 -5 -10 -4 -5 4 5 7 -21 40 -68 88 -61 62 -78 74 -90 64 -11
-9 -15 -9 -18 1 -3 9 -6 9 -12 0z m1944 -123 c0 -5 -7 -9 -15 -9 -9 0 -12 6
-9 15 6 15 24 11 24 -6z m-710 1 c0 -5 -7 -10 -16 -10 -8 0 -12 5 -9 10 3 6
10 10 16 10 5 0 9 -4 9 -10z m-1130 -20 c-27 -21 -40 -25 -40 -12 0 9 38 30
55 31 6 0 -1 -8 -15 -19z m587 -12 c-3 -8 -6 -5 -6 6 -1 11 2 17 5 13 3 -3 4
-12 1 -19z m1320 -10 c-3 -8 -6 -5 -6 6 -1 11 2 17 5 13 3 -3 4 -12 1 -19z
m-1990 -10 c-3 -8 -6 -5 -6 6 -1 11 2 17 5 13 3 -3 4 -12 1 -19z m1183 12 c0
-5 -4 -10 -10 -10 -5 0 -10 5 -10 10 0 6 5 10 10 10 6 0 10 -4 10 -10z m767 4
c-3 -3 -12 -4 -19 -1 -8 3 -5 6 6 6 11 1 17 -2 13 -5z m-1851 -49 c1 -8 -1
-17 -5 -19 -4 -3 -8 7 -9 21 -2 27 10 25 14 -2z m-72 0 c-7 -16 -24 -21 -24
-6 0 8 7 13 27 20 1 1 0 -6 -3 -14z m115 -11 c-15 -18 -22 -13 -13 10 3 9 10
13 16 10 5 -3 4 -12 -3 -20z m431 16 c0 -5 -5 -10 -11 -10 -6 0 -9 -9 -6 -19
3 -12 -1 -22 -9 -25 -17 -7 -18 17 -2 44 14 21 28 26 28 10z m1510 0 c0 -5 -4
-10 -10 -10 -5 0 -10 5 -10 10 0 6 5 10 10 10 6 0 10 -4 10 -10z m-106 -40
c23 -57 19 -62 -9 -15 -27 43 -30 55 -16 55 5 0 16 -18 25 -40z m-1354 20 c0
-5 -4 -10 -10 -10 -5 0 -10 5 -10 10 0 6 5 10 10 10 6 0 10 -4 10 -10z m50 -1
c0 -5 4 -8 8 -5 5 3 9 -1 9 -9 0 -20 -9 -19 -30 5 -14 17 -14 20 -2 20 8 0 15
-5 15 -11z m65 1 c3 -5 1 -10 -4 -10 -6 0 -11 5 -11 10 0 6 2 10 4 10 3 0 8
-4 11 -10z m139 0 c177 17 335 -10 494 -85 109 -52 153 -81 146 -98 -16 -39
-107 -66 -160 -46 -18 6 -23 3 -27 -14 -3 -12 -16 -60 -30 -107 -14 -47 -37
-130 -52 -185 -15 -55 -29 -108 -32 -119 -5 -17 -1 -18 33 -11 22 4 42 11 45
17 4 6 12 7 18 4 6 -4 11 0 11 11 0 13 3 14 8 5 6 -9 19 -5 50 18 23 17 42 35
42 40 0 6 9 10 21 10 17 0 14 -6 -21 -35 l-42 -35 34 7 c18 3 41 14 51 24 10
11 22 19 27 19 6 0 10 5 10 11 0 6 6 17 14 25 19 18 33 -1 15 -22 -6 -8 -9
-17 -6 -20 5 -6 184 40 194 50 11 11 -10 26 -40 27 -24 1 -26 3 -9 6 27 5 27
8 2 33 -28 28 -25 41 14 79 l35 34 49 -75 c27 -42 59 -101 72 -132 15 -39 26
-53 31 -45 4 8 11 10 15 6 4 -3 1 -13 -6 -22 -7 -8 -9 -15 -4 -15 5 0 9 -12
10 -27 0 -16 9 -71 19 -123 30 -163 9 -354 -58 -520 -26 -62 -102 -196 -119
-206 -13 -8 -78 56 -78 77 0 10 11 26 25 37 21 17 25 28 25 71 0 49 -1 51 -28
51 -35 0 -45 -9 -31 -26 8 -9 2 -10 -28 -3 -83 20 -93 21 -93 11 0 -6 5 -14
10 -17 13 -8 13 -25 -1 -25 -5 0 -7 5 -3 12 5 8 2 9 -9 5 -13 -5 -17 -1 -17
18 0 13 -5 27 -12 31 -7 4 -8 3 -4 -4 10 -17 -4 -15 -24 3 -8 8 -38 17 -65 20
-75 8 -75 8 -75 17 0 5 -5 6 -11 2 -6 -3 -14 -1 -18 5 -4 6 -25 14 -45 18 -34
5 -38 4 -33 -13 3 -10 17 -64 32 -119 67 -250 88 -315 100 -306 5 5 34 8 63 6
45 -1 59 -7 89 -35 l35 -33 -24 -19 c-43 -34 -203 -108 -288 -133 -113 -34
-290 -43 -409 -21 -47 8 -88 13 -93 10 -4 -3 -8 0 -8 5 0 6 -7 11 -16 11 -8 0
-12 -4 -9 -10 3 -5 2 -10 -3 -10 -6 0 -12 7 -16 15 -10 27 -49 35 -68 13 -17
-20 -32 -10 -22 16 9 23 -26 34 -41 13 -15 -21 -29 -22 -21 -2 9 25 -4 45 -46
66 -54 28 -58 45 -18 80 39 35 64 37 84 7 9 -12 16 -19 16 -14 0 4 9 -2 19
-15 11 -13 21 -22 24 -19 8 8 56 195 51 199 -2 3 -10 -1 -16 -7 -17 -17 -38
-15 -38 4 0 8 5 12 10 9 6 -3 10 -1 10 4 0 6 7 11 15 11 8 0 15 5 15 12 0 6 7
19 15 28 15 16 29 60 19 60 -7 0 -41 -37 -46 -51 -3 -9 -6 -10 -11 -2 -4 6 5
24 21 40 28 28 59 90 54 107 -2 4 4 13 12 20 16 12 32 76 19 76 -4 0 -49 -12
-98 -26 -93 -26 -100 -28 -175 -46 -25 -6 -51 -18 -57 -26 -8 -10 -13 -11 -13
-4 0 14 -38 7 -74 -12 -18 -10 -21 -20 -20 -76 1 -63 0 -66 -39 -104 l-40 -39
-13 32 c-7 17 -20 34 -29 37 -8 3 -15 11 -15 17 0 6 -18 48 -40 92 -63 128
-92 254 -93 410 0 72 2 146 6 166 6 34 5 36 -16 32 -14 -3 -29 3 -41 16 -23
25 -14 27 19 5 32 -21 47 -9 64 47 10 34 10 43 -1 50 -10 7 -10 9 2 9 22 0 42
56 26 70 -7 5 -15 7 -19 4 -7 -7 -75 14 -82 26 -3 5 12 8 34 7 24 -1 35 -4 28
-9 -7 -4 -10 -8 -7 -9 67 -11 69 -10 91 34 12 23 35 61 51 85 16 23 24 42 18
42 -5 0 -10 5 -10 11 0 6 7 9 15 6 8 -4 17 -1 21 4 4 6 20 -3 41 -23 24 -23
33 -40 30 -55 -2 -13 -1 -23 3 -23 7 0 4 -54 -4 -76 -5 -13 26 -24 174 -63 63
-17 146 -39 185 -51 38 -11 73 -16 77 -12 10 10 -10 82 -23 82 -6 0 -7 5 -4
10 3 6 0 10 -7 11 -10 0 -10 2 -1 6 10 3 9 9 -3 20 -8 9 -13 24 -11 35 3 10 1
16 -4 13 -12 -8 -49 32 -48 53 1 16 2 16 6 0 2 -10 11 -18 18 -18 7 0 16 -6
18 -12 3 -7 6 -3 6 8 1 12 -6 27 -14 34 -8 7 -15 19 -15 26 0 8 -7 14 -15 14
-8 0 -15 5 -15 11 0 5 -4 7 -10 4 -5 -3 -10 1 -10 9 0 19 21 21 38 4 22 -22
21 -2 -5 95 -20 76 -30 97 -42 95 -9 -2 -19 -18 -22 -38 -5 -25 -7 -28 -8 -11
l-1 24 -23 -21 c-30 -28 -35 -27 -76 7 l-34 28 22 20 c32 30 142 82 235 112
61 20 81 30 78 41 -4 12 -2 13 9 3 11 -9 40 -10 113 -3z m549 -5 c-3 -9 -8
-14 -10 -11 -3 3 -2 9 2 15 9 16 15 13 8 -4z m-948 -5 c3 -5 2 -10 -4 -10 -5
0 -13 5 -16 10 -3 6 -2 10 4 10 5 0 13 -4 16 -10z m995 6 c0 -3 -4 -8 -10 -11
-5 -3 -10 -1 -10 4 0 6 5 11 10 11 6 0 10 -2 10 -4z m-93 -28 c-3 -8 -6 -5 -6
6 -1 11 2 17 5 13 3 -3 4 -12 1 -19z m-1287 -2 c0 -8 -7 -17 -16 -20 -25 -10
-30 2 -8 19 24 18 24 18 24 1z m137 -8 c-3 -8 -6 -5 -6 6 -1 11 2 17 5 13 3
-3 4 -12 1 -19z m1598 -28 c3 -6 -1 -7 -9 -4 -18 7 -21 14 -7 14 6 0 13 -4 16
-10z m75 0 c8 -5 11 -12 7 -16 -4 -4 -15 0 -24 9 -18 18 -8 23 17 7z m-1718
-32 c-7 -7 -12 -8 -12 -2 0 14 12 26 19 19 2 -3 -1 -11 -7 -17z m1355 -40 c-3
-7 -5 -2 -5 12 0 14 2 19 5 13 2 -7 2 -19 0 -25z m258 22 c3 -5 -1 -10 -10
-10 -9 0 -13 5 -10 10 3 6 8 10 10 10 2 0 7 -4 10 -10z m55 -50 c0 -5 -2 -10
-4 -10 -3 0 -8 5 -11 10 -3 6 -1 10 4 10 6 0 11 -4 11 -10z m-340 -60 c0 -5
-2 -10 -4 -10 -3 0 -8 5 -11 10 -3 6 -1 10 4 10 6 0 11 -4 11 -10z m-1075 -10
c3 -5 1 -10 -4 -10 -6 0 -11 5 -11 10 0 6 2 10 4 10 3 0 8 -4 11 -10z m-275
-56 c0 -2 -15 -4 -32 -4 -23 0 -29 3 -19 9 12 8 51 4 51 -5z m305 -4 c3 -5 1
-10 -4 -10 -6 0 -11 5 -11 10 0 6 2 10 4 10 3 0 8 -4 11 -10z m-275 -26 c0 -8
-4 -12 -10 -9 -5 3 -10 10 -10 16 0 5 5 9 10 9 6 0 10 -7 10 -16z m1215 -3
c-3 -6 -13 -11 -22 -11 -11 0 -14 -7 -11 -24 3 -16 0 -27 -10 -31 -11 -4 -13
0 -8 17 3 13 6 29 6 36 0 7 10 16 23 21 25 10 32 7 22 -8z m92 -3 c-3 -8 -6
-5 -6 6 -1 11 2 17 5 13 3 -3 4 -12 1 -19z m-1073 -3 c-4 -8 -11 -15 -16 -15
-6 0 -5 6 2 15 7 8 14 15 16 15 2 0 1 -7 -2 -15z m-320 -24 c-2 -3 -12 3 -22
13 -16 17 -16 18 5 5 12 -7 20 -15 17 -18z m1356 19 c0 -5 -7 -10 -16 -10 -8
0 -12 5 -9 10 3 6 10 10 16 10 5 0 9 -4 9 -10z m96 -27 c-7 -7 -26 7 -26 19 0
6 6 6 15 -2 9 -7 13 -15 11 -17z m-1386 10 c0 -3 -7 -15 -17 -25 -9 -11 -11
-18 -5 -18 7 0 12 -5 12 -12 0 -8 -5 -7 -16 4 -13 13 -14 19 -2 37 12 20 28
28 28 14z m1160 0 c0 -14 -19 -38 -25 -32 -8 8 5 39 16 39 5 0 9 -3 9 -7z
m-1040 -19 c0 -8 -5 -12 -10 -9 -6 4 -8 11 -5 16 9 14 15 11 15 -7z m1211 -7
c-10 -9 -11 -8 -5 6 3 10 9 15 12 12 3 -3 0 -11 -7 -18z m149 19 c0 -3 -4 -8
-10 -11 -5 -3 -10 -1 -10 4 0 6 5 11 10 11 6 0 10 -2 10 -4z m-1250 -16 c0 -5
-8 -10 -17 -10 -15 0 -16 2 -3 10 19 12 20 12 20 0z m90 -20 c0 -5 -4 -10 -10
-10 -5 0 -10 5 -10 10 0 6 5 10 10 10 6 0 10 -4 10 -10z m926 -12 c-10 -6 -20
-7 -24 -3 -9 8 20 25 31 18 5 -3 2 -10 -7 -15z m424 1 c0 -6 -4 -7 -10 -4 -5
3 -10 11 -10 16 0 6 5 7 10 4 6 -3 10 -11 10 -16z m-1440 -19 c6 -11 7 -20 2
-20 -6 0 -12 9 -15 20 -3 11 -3 20 -1 20 2 0 8 -9 14 -20z m1041 -13 c-10 -9
-11 -8 -5 6 3 10 9 15 12 12 3 -3 0 -11 -7 -18z m-41 4 c0 -10 -100 -45 -107
-37 -6 6 75 43 100 45 4 1 7 -3 7 -8z m-1333 -8 c-9 -2 -14 -9 -11 -15 5 -7 2
-8 -6 -3 -7 4 -16 2 -20 -5 -5 -9 -9 -9 -14 -1 -8 12 27 30 54 29 10 0 9 -2
-3 -5z m48 -3 c3 -5 1 -10 -4 -10 -6 0 -11 5 -11 10 0 6 2 10 4 10 3 0 8 -4
11 -10z m445 6 c0 -3 -4 -8 -10 -11 -5 -3 -10 -1 -10 4 0 6 5 11 10 11 6 0 10
-2 10 -4z m-82 -34 c6 -18 -15 -14 -22 4 -4 10 -1 14 6 12 6 -2 14 -10 16 -16z
m1344 -4 c-7 -7 -12 -8 -12 -2 0 6 3 14 7 17 3 4 9 5 12 2 2 -3 -1 -11 -7 -17z
m-1429 -9 c5 -17 11 -20 31 -17 14 3 23 2 21 -3 -3 -4 1 -10 7 -12 24 -10 -20
-7 -45 2 -22 9 -45 51 -27 51 4 0 10 -10 13 -21z m154 -1 c-3 -8 -6 -5 -6 6
-1 11 2 17 5 13 3 -3 4 -12 1 -19z m96 -2 c4 -11 0 -11 -18 -2 -13 6 -21 14
-19 18 6 10 31 -1 37 -16z m-128 -18 c4 -18 12 -38 17 -45 5 -7 6 -18 2 -24
-7 -12 -42 60 -43 89 -2 26 18 10 24 -20z m892 26 c-3 -3 -12 -4 -19 -1 -8 3
-5 6 6 6 11 1 17 -2 13 -5z m43 -10 c0 -2 -7 -4 -15 -4 -8 0 -15 4 -15 10 0 5
7 7 15 4 8 -4 15 -8 15 -10z m-850 -14 c0 -5 -4 -10 -10 -10 -5 0 -10 5 -10
10 0 6 5 10 10 10 6 0 10 -4 10 -10z m30 0 c0 -5 -4 -10 -10 -10 -5 0 -10 5
-10 10 0 6 5 10 10 10 6 0 10 -4 10 -10z m1010 -20 c0 -5 -2 -10 -4 -10 -3 0
-8 5 -11 10 -3 6 -1 10 4 10 6 0 11 -4 11 -10z m-1275 -10 c3 -5 2 -10 -4 -10
-5 0 -13 5 -16 10 -3 6 -2 10 4 10 5 0 13 -4 16 -10z m-380 -30 c5 -15 12 -19
26 -15 13 4 19 2 19 -9 0 -9 -7 -16 -15 -16 -10 0 -12 -6 -8 -17 6 -16 5 -16
-10 -5 -9 8 -22 10 -28 6 -8 -5 -10 -2 -6 8 3 9 0 21 -6 27 -8 8 -6 11 7 11
15 0 16 3 6 15 -8 9 -8 15 -2 15 6 0 14 -9 17 -20z m461 -7 c-8 -8 -36 5 -36
17 0 7 6 7 21 0 11 -7 18 -14 15 -17z m1448 12 c-7 -18 -20 -19 -30 -3 -4 7
-3 8 4 4 7 -4 12 -2 12 3 0 6 4 11 10 11 5 0 7 -7 4 -15z m73 -71 c-3 -3 -12
-4 -19 -1 -8 3 -5 6 6 6 11 1 17 -2 13 -5z m-2027 -24 c0 -5 -2 -10 -4 -10 -3
0 -8 5 -11 10 -3 6 -1 10 4 10 6 0 11 -4 11 -10z m50 -20 c-8 -5 -24 -9 -35
-9 l-20 0 20 9 c11 5 27 9 35 9 13 1 13 0 0 -9z m2020 -130 c0 -5 -5 -10 -11
-10 -5 0 -7 5 -4 10 3 6 8 10 11 10 2 0 4 -4 4 -10z m40 -44 c0 -3 -4 -8 -10
-11 -5 -3 -10 -1 -10 4 0 6 5 11 10 11 6 0 10 -2 10 -4z m-40 -76 c0 -5 -5
-10 -11 -10 -5 0 -7 5 -4 10 3 6 8 10 11 10 2 0 4 -4 4 -10z m-2060 -50 c0 -5
-5 -10 -11 -10 -5 0 -7 5 -4 10 3 6 8 10 11 10 2 0 4 -4 4 -10z m1494 -322
c20 -18 19 -18 -2 -18 -13 0 -22 6 -22 15 0 9 -7 18 -15 21 -8 4 -15 11 -15
16 0 10 15 0 54 -34z m-921 -40 c-14 -42 -33 -72 -33 -52 0 20 34 103 41 99 4
-3 0 -24 -8 -47z m-73 33 c0 -5 -9 -11 -20 -14 -20 -5 -26 3 -13 16 9 10 33 8
33 -2z m5 -50 c-4 -12 0 -23 10 -28 10 -6 13 -16 9 -26 -3 -9 -10 -14 -15 -11
-5 3 -7 10 -3 15 3 6 -4 18 -15 28 -26 22 -26 28 -3 34 9 3 18 5 20 6 2 0 1
-8 -3 -18z m1195 15 c0 -11 -19 -15 -25 -6 -3 5 1 10 9 10 9 0 16 -2 16 -4z
m-1252 -35 c-7 -12 -16 -21 -21 -21 -8 0 -2 14 16 38 16 20 20 6 5 -17z m232
8 c0 -5 5 -7 12 -3 7 4 8 3 4 -5 -6 -9 -11 -9 -22 0 -17 14 -18 19 -4 19 6 0
10 -5 10 -11z m-83 -31 c-3 -8 -6 -5 -6 6 -1 11 2 17 5 13 3 -3 4 -12 1 -19z
m858 12 c-3 -5 -12 -10 -18 -10 -7 0 -6 4 3 10 19 12 23 12 15 0z m42 4 c-3
-3 -12 -4 -19 -1 -8 3 -5 6 6 6 11 1 17 -2 13 -5z m-84 -29 c26 -6 38 -15 32
-25 -3 -5 -24 -2 -48 7 -53 20 -73 38 -32 28 17 -4 38 -8 48 -10z m-803 -15
c0 -5 -4 -10 -10 -10 -5 0 -10 5 -10 10 0 6 5 10 10 10 6 0 10 -4 10 -10z
m890 -11 c0 -6 -4 -7 -10 -4 -5 3 -10 11 -10 16 0 6 5 7 10 4 6 -3 10 -11 10
-16z m453 0 c-6 -6 -19 -9 -29 -6 -17 3 -16 5 6 14 28 12 39 8 23 -8z m-1506
-11 c-3 -8 -6 -5 -6 6 -1 11 2 17 5 13 3 -3 4 -12 1 -19z m1018 -19 c11 -16 1
-19 -13 -3 -7 8 -8 14 -3 14 5 0 13 -5 16 -11z m-925 -9 c0 -5 -4 -10 -10 -10
-5 0 -10 5 -10 10 0 6 5 10 10 10 6 0 10 -4 10 -10z m888 -3 c14 5 15 3 5 -8
-20 -21 -15 -46 10 -54 15 -4 18 -8 9 -12 -20 -8 -41 17 -47 57 -3 19 -3 30 1
23 3 -7 13 -9 22 -6z m212 3 c0 -5 -2 -10 -4 -10 -3 0 -8 5 -11 10 -3 6 -1 10
4 10 6 0 11 -4 11 -10z m-272 -39 c-15 -5 -21 7 -13 26 7 17 8 17 15 -2 4 -11
3 -22 -2 -24z m-1028 19 c0 -5 -5 -10 -11 -10 -5 0 -7 5 -4 10 3 6 8 10 11 10
2 0 4 -4 4 -10z m107 4 c-3 -3 -12 -4 -19 -1 -8 3 -5 6 6 6 11 1 17 -2 13 -5z
m1247 -10 c3 -8 2 -12 -4 -9 -6 3 -10 10 -10 16 0 14 7 11 14 -7z m-89 -14
c-3 -5 -11 -10 -16 -10 -6 0 -7 5 -4 10 3 6 11 10 16 10 6 0 7 -4 4 -10z
m-1130 -21 c11 -17 -1 -21 -15 -4 -8 9 -8 15 -2 15 6 0 14 -5 17 -11z m1035 1
c0 -5 -7 -7 -15 -4 -8 4 -15 8 -15 10 0 2 7 4 15 4 8 0 15 -4 15 -10z m37 -22
c-3 -8 -6 -5 -6 6 -1 11 2 17 5 13 3 -3 4 -12 1 -19z m-1230 -20 c-3 -8 -6 -5
-6 6 -1 11 2 17 5 13 3 -3 4 -12 1 -19z m203 8 c0 -3 -4 -8 -10 -11 -5 -3 -10
-1 -10 4 0 6 5 11 10 11 6 0 10 -2 10 -4z m880 -6 c0 -5 -2 -10 -4 -10 -3 0
-8 5 -11 10 -3 6 -1 10 4 10 6 0 11 -4 11 -10z m500 0 c0 -5 -2 -10 -4 -10 -3
0 -8 5 -11 10 -3 6 -1 10 4 10 6 0 11 -4 11 -10z m-1505 -30 c3 -5 1 -10 -4
-10 -6 0 -11 5 -11 10 0 6 2 10 4 10 3 0 8 -4 11 -10z m212 -52 c-3 -8 -6 -5
-6 6 -1 11 2 17 5 13 3 -3 4 -12 1 -19z m1317 -47 c4 -5 -2 -8 -11 -7 -10 2
-29 -4 -43 -13 l-25 -15 19 22 c20 23 50 29 60 13z m-70 -51 c-21 -8 -37 -3
-29 10 3 4 15 6 27 2 21 -5 21 -6 2 -12z m-1403 -28 c-13 -2 -18 -9 -14 -18 3
-8 0 -14 -6 -14 -12 0 -13 6 -5 37 5 19 9 20 25 10 19 -12 19 -12 0 -15z m47
17 c-2 -3 3 -13 11 -23 8 -9 11 -20 7 -23 -9 -10 -27 19 -21 34 2 6 0 14 -6
17 -5 2 -5 4 2 3 6 -2 9 -5 7 -8z m-258 -9 c0 -5 -4 -10 -10 -10 -5 0 -10 5
-10 10 0 6 5 10 10 10 6 0 10 -4 10 -10z m1720 -19 c0 -5 -7 -12 -16 -15 -24
-9 -28 -7 -14 9 14 17 30 20 30 6z m-1780 -16 c7 -9 8 -15 2 -15 -5 0 -12 7
-16 15 -3 8 -4 15 -2 15 2 0 9 -7 16 -15z m220 5 c0 -5 -2 -10 -4 -10 -3 0 -8
5 -11 10 -3 6 -1 10 4 10 6 0 11 -4 11 -10z m-273 -22 c16 -21 23 -48 13 -48
-6 0 -10 5 -10 12 0 6 -7 20 -17 30 -9 10 -11 18 -6 18 6 0 15 -6 20 -12z
m151 -29 c-3 -20 -5 -19 -9 9 -3 20 -2 29 4 23 5 -5 7 -19 5 -32z m1750 14
c-13 -31 -38 -62 -38 -48 0 12 38 75 45 75 2 0 -1 -12 -7 -27z m-458 9 c0 -10
-60 -46 -66 -39 -3 2 10 14 28 26 38 24 38 24 38 13z m225 -2 c3 -5 1 -10 -4
-10 -6 0 -11 5 -11 10 0 6 2 10 4 10 3 0 8 -4 11 -10z m135 -11 c0 -5 -5 -7
-12 -3 -6 4 -17 -1 -24 -11 -8 -10 -16 -16 -19 -13 -8 8 24 38 41 38 8 0 14
-5 14 -11z m37 5 c-3 -3 -12 -4 -19 -1 -8 3 -5 6 6 6 11 1 17 -2 13 -5z
m-1993 -66 c-9 -14 -32 -8 -38 9 -9 23 15 35 30 15 7 -9 10 -20 8 -24z m219
15 c-5 -12 -7 -12 -14 -1 -13 20 -11 28 5 22 8 -3 12 -12 9 -21z m-118 7 c3
-5 -1 -10 -9 -10 -9 0 -16 5 -16 10 0 6 4 10 9 10 6 0 13 -4 16 -10z m1892 -8
c-10 -10 -17 -24 -17 -31 0 -7 -5 -9 -10 -6 -11 7 19 54 34 55 5 0 2 -8 -7
-18z m128 8 c3 -5 1 -10 -4 -10 -6 0 -11 5 -11 10 0 6 2 10 4 10 3 0 8 -4 11
-10z m-2077 -12 c-6 -18 -28 -21 -28 -4 0 9 7 16 16 16 9 0 14 -5 12 -12z
m2019 -40 c-2 -13 -4 -5 -4 17 -1 22 1 32 4 23 2 -10 2 -28 0 -40z m93 48 c0
-3 -4 -8 -10 -11 -5 -3 -10 -1 -10 4 0 6 5 11 10 11 6 0 10 -2 10 -4z m-2082
-42 c-3 -14 -5 -12 -10 9 -3 19 -2 25 4 19 6 -6 8 -18 6 -28z m102 32 c0 -3
-4 -8 -10 -11 -5 -3 -10 -1 -10 4 0 6 5 11 10 11 6 0 10 -2 10 -4z m520 -20
c0 -3 -4 -8 -10 -11 -5 -3 -10 -1 -10 4 0 6 5 11 10 11 6 0 10 -2 10 -4z
m-520 -48 c0 -11 -4 -10 -34 3 -14 7 -27 18 -30 25 -4 10 3 9 29 -3 19 -9 35
-20 35 -25z m1223 12 c-14 -16 -31 -30 -37 -30 -5 0 3 14 19 30 16 17 32 30
37 30 4 0 -4 -13 -19 -30z m621 18 c-3 -4 -12 -8 -20 -8 -8 0 -13 4 -10 8 3 5
12 9 20 9 8 0 13 -4 10 -9z m-29 -36 c0 -18 -20 -15 -23 4 -3 10 1 15 10 12 7
-3 13 -10 13 -16z m-1887 -9 c-10 -2 -26 -2 -35 0 -10 3 -2 5 17 5 19 0 27 -2
18 -5z"/>
<path d="M1610 2032 c0 -25 20 -42 49 -42 l25 0 -29 30 c-33 34 -45 38 -45 12z"/>
<path d="M507 1712 c-24 -26 -21 -44 6 -40 16 2 23 11 25 31 4 31 -8 35 -31 9z"/>
<path d="M490 858 c0 -7 12 -21 26 -32 l26 -18 -4 28 c-2 21 -9 30 -25 32 -14
2 -23 -2 -23 -10z"/>
<path d="M1622 538 c-7 -7 -12 -18 -12 -24 0 -25 18 -23 45 6 l29 30 -25 0
c-14 0 -30 -5 -37 -12z"/>
<path d="M121 2356 c-18 -19 -29 -36 -24 -39 6 -4 9 -19 8 -34 -1 -15 0 -19 2
-9 4 16 7 17 14 5 6 -10 9 -3 9 21 0 20 7 46 16 58 25 36 11 35 -25 -2z"/>
<path d="M2220 2380 c0 -5 5 -10 11 -10 5 0 7 5 4 10 -3 6 -8 10 -11 10 -2 0
-4 -4 -4 -10z"/>
<path d="M2350 2351 c0 -6 4 -13 10 -16 6 -3 7 1 4 9 -7 18 -14 21 -14 7z"/>
<path d="M2330 2323 c0 -10 12 -26 26 -37 l26 -18 -16 30 c-19 38 -36 49 -36
25z"/>
<path d="M70 2293 c0 -10 4 -14 8 -8 4 6 11 13 16 18 5 4 2 7 -7 7 -10 0 -17
-8 -17 -17z"/>
<path d="M2351 2261 c13 -11 26 -17 28 -15 5 5 -30 33 -43 34 -4 0 2 -9 15
-19z"/>
<path d="M106 258 c4 -31 -10 -37 -25 -10 -6 9 -11 12 -11 7 0 -13 73 -95 84
-95 4 0 0 10 -8 22 -9 12 -16 37 -16 56 0 18 -4 31 -9 27 -5 -3 -11 0 -14 7
-2 7 -3 1 -1 -14z"/>
<path d="M2353 253 c-22 -14 -34 -61 -14 -48 8 4 44 66 38 64 -1 0 -12 -7 -24
-16z"/>
<path d="M2291 145 c-13 -7 -36 -12 -50 -10 -24 2 -40 -9 -41 -29 0 -4 9 -6
20 -3 13 3 20 0 20 -10 0 -12 2 -12 16 1 8 9 18 16 22 16 4 0 15 12 25 25 10
14 17 25 15 24 -2 -1 -14 -7 -27 -14z"/>
<path d="M206 135 c6 -15 22 -20 57 -17 9 1 17 -3 17 -8 0 -6 5 -10 10 -10 6
0 3 11 -7 24 -16 21 -19 22 -24 8 -6 -16 -7 -15 -14 1 -9 21 -47 24 -39 2z"/>
</g>
</svg>
